<svg width="85" height="21" viewBox="0 0 85 21" fill="none" xmlns="http://www.w3.org/2000/svg">
<mask id="path-1-outside-1_1_2" maskUnits="userSpaceOnUse" x="0" y="0" width="85" height="21" fill="black">
<rect fill="white" width="85" height="21"/>
<path d="M15.3224 2.08V5.824H10.8104V19H6.10638V5.824H1.64238V2.08H15.3224ZM22.7988 19.168C21.5828 19.168 20.4948 18.968 19.5348 18.568C18.5908 18.152 17.8388 17.592 17.2788 16.888C16.7348 16.168 16.4308 15.36 16.3668 14.464H20.9268C20.9908 14.896 21.1908 15.232 21.5268 15.472C21.8628 15.712 22.2788 15.832 22.7747 15.832C23.1588 15.832 23.4628 15.752 23.6868 15.592C23.9108 15.432 24.0228 15.224 24.0228 14.968C24.0228 14.632 23.8388 14.384 23.4708 14.224C23.1028 14.064 22.4948 13.888 21.6468 13.696C20.6868 13.504 19.8868 13.288 19.2467 13.048C18.6068 12.808 18.0468 12.416 17.5668 11.872C17.1028 11.328 16.8708 10.592 16.8708 9.664C16.8708 8.864 17.0868 8.144 17.5188 7.504C17.9508 6.848 18.5828 6.328 19.4148 5.944C20.2628 5.56 21.2788 5.368 22.4628 5.368C24.2228 5.368 25.6068 5.8 26.6148 6.664C27.6228 7.528 28.2068 8.664 28.3668 10.072H24.1188C24.0388 9.64 23.8468 9.312 23.5428 9.088C23.2548 8.848 22.8628 8.728 22.3668 8.728C21.9828 8.728 21.6868 8.8 21.4788 8.944C21.2868 9.088 21.1908 9.288 21.1908 9.544C21.1908 9.864 21.3748 10.112 21.7428 10.288C22.1108 10.448 22.7028 10.616 23.5188 10.792C24.4948 11 25.3028 11.232 25.9428 11.488C26.5988 11.744 27.1668 12.16 27.6468 12.736C28.1428 13.296 28.3907 14.064 28.3907 15.04C28.3907 15.824 28.1588 16.528 27.6948 17.152C27.2468 17.776 26.5988 18.272 25.7508 18.64C24.9188 18.992 23.9348 19.168 22.7988 19.168ZM39.5594 5.416C41.0954 5.416 42.3114 5.936 43.2074 6.976C44.1194 8 44.5754 9.392 44.5754 11.152V19H39.8714V11.776C39.8714 11.008 39.6714 10.408 39.2714 9.976C38.8714 9.528 38.3354 9.304 37.6634 9.304C36.9594 9.304 36.4074 9.528 36.0074 9.976C35.6074 10.408 35.4074 11.008 35.4074 11.776V19H30.7034V1.24H35.4074V7.456C35.8234 6.848 36.3834 6.36 37.0874 5.992C37.8074 5.608 38.6314 5.416 39.5594 5.416ZM51.8605 7.912C52.3885 7.144 53.0285 6.536 53.7805 6.088C54.5325 5.64 55.3405 5.416 56.2045 5.416V10.432H54.8845C53.8605 10.432 53.1005 10.632 52.6045 11.032C52.1085 11.432 51.8605 12.128 51.8605 13.12V19H47.1565V5.536H51.8605V7.912ZM57.3389 15.232C58.8909 14.016 60.1629 12.968 61.1549 12.088C62.1469 11.208 62.9789 10.304 63.6509 9.376C64.3229 8.432 64.6589 7.536 64.6589 6.688C64.6589 6.176 64.5389 5.776 64.2989 5.488C64.0749 5.2 63.7389 5.056 63.2909 5.056C62.8269 5.056 62.4669 5.256 62.2109 5.656C61.9549 6.04 61.8349 6.608 61.8509 7.36H57.2909C57.3389 5.936 57.6509 4.76 58.2269 3.832C58.8029 2.888 59.5549 2.2 60.4829 1.768C61.4109 1.32 62.4429 1.096 63.5789 1.096C65.5469 1.096 67.0109 1.584 67.9709 2.56C68.9309 3.536 69.4109 4.8 69.4109 6.352C69.4109 8.016 68.8509 9.576 67.7309 11.032C66.6269 12.488 65.2429 13.792 63.5789 14.944H69.5789V18.76H57.3389V15.232ZM76.0189 13.696C76.2109 14.784 76.8029 15.328 77.7949 15.328C78.5149 15.328 79.0029 14.992 79.2589 14.32C79.5309 13.632 79.6669 12.536 79.6669 11.032C79.3469 11.496 78.8989 11.864 78.3229 12.136C77.7469 12.408 77.0989 12.544 76.3789 12.544C74.8429 12.544 73.5949 12.064 72.6349 11.104C71.6749 10.144 71.1949 8.76 71.1949 6.952C71.1949 5.768 71.4429 4.736 71.9389 3.856C72.4349 2.96 73.1389 2.272 74.0509 1.792C74.9789 1.312 76.0589 1.072 77.2909 1.072C79.7389 1.072 81.4429 1.816 82.4029 3.304C83.3789 4.776 83.8669 6.92 83.8669 9.736C83.8669 12.888 83.3949 15.24 82.4509 16.792C81.5229 18.344 79.9229 19.12 77.6509 19.12C76.4189 19.12 75.3549 18.872 74.4589 18.376C73.5789 17.864 72.8989 17.2 72.4189 16.384C71.9549 15.552 71.6909 14.656 71.6269 13.696H76.0189ZM77.5069 8.896C78.0669 8.896 78.5069 8.736 78.8269 8.416C79.1469 8.08 79.3069 7.632 79.3069 7.072C79.3069 6.432 79.1389 5.952 78.8029 5.632C78.4829 5.312 78.0349 5.152 77.4589 5.152C76.8829 5.152 76.4269 5.32 76.0909 5.656C75.7709 5.976 75.6109 6.44 75.6109 7.048C75.6109 7.608 75.7709 8.056 76.0909 8.392C76.4269 8.728 76.8989 8.896 77.5069 8.896Z"/>
</mask>
<path d="M15.3224 2.08V5.824H10.8104V19H6.10638V5.824H1.64238V2.08H15.3224ZM22.7988 19.168C21.5828 19.168 20.4948 18.968 19.5348 18.568C18.5908 18.152 17.8388 17.592 17.2788 16.888C16.7348 16.168 16.4308 15.36 16.3668 14.464H20.9268C20.9908 14.896 21.1908 15.232 21.5268 15.472C21.8628 15.712 22.2788 15.832 22.7747 15.832C23.1588 15.832 23.4628 15.752 23.6868 15.592C23.9108 15.432 24.0228 15.224 24.0228 14.968C24.0228 14.632 23.8388 14.384 23.4708 14.224C23.1028 14.064 22.4948 13.888 21.6468 13.696C20.6868 13.504 19.8868 13.288 19.2467 13.048C18.6068 12.808 18.0468 12.416 17.5668 11.872C17.1028 11.328 16.8708 10.592 16.8708 9.664C16.8708 8.864 17.0868 8.144 17.5188 7.504C17.9508 6.848 18.5828 6.328 19.4148 5.944C20.2628 5.56 21.2788 5.368 22.4628 5.368C24.2228 5.368 25.6068 5.8 26.6148 6.664C27.6228 7.528 28.2068 8.664 28.3668 10.072H24.1188C24.0388 9.64 23.8468 9.312 23.5428 9.088C23.2548 8.848 22.8628 8.728 22.3668 8.728C21.9828 8.728 21.6868 8.8 21.4788 8.944C21.2868 9.088 21.1908 9.288 21.1908 9.544C21.1908 9.864 21.3748 10.112 21.7428 10.288C22.1108 10.448 22.7028 10.616 23.5188 10.792C24.4948 11 25.3028 11.232 25.9428 11.488C26.5988 11.744 27.1668 12.16 27.6468 12.736C28.1428 13.296 28.3907 14.064 28.3907 15.04C28.3907 15.824 28.1588 16.528 27.6948 17.152C27.2468 17.776 26.5988 18.272 25.7508 18.64C24.9188 18.992 23.9348 19.168 22.7988 19.168ZM39.5594 5.416C41.0954 5.416 42.3114 5.936 43.2074 6.976C44.1194 8 44.5754 9.392 44.5754 11.152V19H39.8714V11.776C39.8714 11.008 39.6714 10.408 39.2714 9.976C38.8714 9.528 38.3354 9.304 37.6634 9.304C36.9594 9.304 36.4074 9.528 36.0074 9.976C35.6074 10.408 35.4074 11.008 35.4074 11.776V19H30.7034V1.24H35.4074V7.456C35.8234 6.848 36.3834 6.36 37.0874 5.992C37.8074 5.608 38.6314 5.416 39.5594 5.416ZM51.8605 7.912C52.3885 7.144 53.0285 6.536 53.7805 6.088C54.5325 5.64 55.3405 5.416 56.2045 5.416V10.432H54.8845C53.8605 10.432 53.1005 10.632 52.6045 11.032C52.1085 11.432 51.8605 12.128 51.8605 13.12V19H47.1565V5.536H51.8605V7.912ZM57.3389 15.232C58.8909 14.016 60.1629 12.968 61.1549 12.088C62.1469 11.208 62.9789 10.304 63.6509 9.376C64.3229 8.432 64.6589 7.536 64.6589 6.688C64.6589 6.176 64.5389 5.776 64.2989 5.488C64.0749 5.2 63.7389 5.056 63.2909 5.056C62.8269 5.056 62.4669 5.256 62.2109 5.656C61.9549 6.04 61.8349 6.608 61.8509 7.36H57.2909C57.3389 5.936 57.6509 4.76 58.2269 3.832C58.8029 2.888 59.5549 2.2 60.4829 1.768C61.4109 1.32 62.4429 1.096 63.5789 1.096C65.5469 1.096 67.0109 1.584 67.9709 2.56C68.9309 3.536 69.4109 4.8 69.4109 6.352C69.4109 8.016 68.8509 9.576 67.7309 11.032C66.6269 12.488 65.2429 13.792 63.5789 14.944H69.5789V18.76H57.3389V15.232ZM76.0189 13.696C76.2109 14.784 76.8029 15.328 77.7949 15.328C78.5149 15.328 79.0029 14.992 79.2589 14.32C79.5309 13.632 79.6669 12.536 79.6669 11.032C79.3469 11.496 78.8989 11.864 78.3229 12.136C77.7469 12.408 77.0989 12.544 76.3789 12.544C74.8429 12.544 73.5949 12.064 72.6349 11.104C71.6749 10.144 71.1949 8.76 71.1949 6.952C71.1949 5.768 71.4429 4.736 71.9389 3.856C72.4349 2.96 73.1389 2.272 74.0509 1.792C74.9789 1.312 76.0589 1.072 77.2909 1.072C79.7389 1.072 81.4429 1.816 82.4029 3.304C83.3789 4.776 83.8669 6.92 83.8669 9.736C83.8669 12.888 83.3949 15.24 82.4509 16.792C81.5229 18.344 79.9229 19.12 77.6509 19.12C76.4189 19.12 75.3549 18.872 74.4589 18.376C73.5789 17.864 72.8989 17.2 72.4189 16.384C71.9549 15.552 71.6909 14.656 71.6269 13.696H76.0189ZM77.5069 8.896C78.0669 8.896 78.5069 8.736 78.8269 8.416C79.1469 8.08 79.3069 7.632 79.3069 7.072C79.3069 6.432 79.1389 5.952 78.8029 5.632C78.4829 5.312 78.0349 5.152 77.4589 5.152C76.8829 5.152 76.4269 5.32 76.0909 5.656C75.7709 5.976 75.6109 6.44 75.6109 7.048C75.6109 7.608 75.7709 8.056 76.0909 8.392C76.4269 8.728 76.8989 8.896 77.5069 8.896Z" fill="black"/>
<path d="M15.3224 2.08H16.3224V1.08H15.3224V2.08ZM15.3224 5.824V6.824H16.3224V5.824H15.3224ZM10.8104 5.824V4.824H9.81038V5.824H10.8104ZM10.8104 19V20H11.8104V19H10.8104ZM6.10638 19H5.10638V20H6.10638V19ZM6.10638 5.824H7.10638V4.824H6.10638V5.824ZM1.64238 5.824H0.642375V6.824H1.64238V5.824ZM1.64238 2.08V1.08H0.642375V2.08H1.64238ZM15.3224 2.08H14.3224V5.824H15.3224H16.3224V2.08H15.3224ZM15.3224 5.824V4.824H10.8104V5.824V6.824H15.3224V5.824ZM10.8104 5.824H9.81038V19H10.8104H11.8104V5.824H10.8104ZM10.8104 19V18H6.10638V19V20H10.8104V19ZM6.10638 19H7.10638V5.824H6.10638H5.10638V19H6.10638ZM6.10638 5.824V4.824H1.64238V5.824V6.824H6.10638V5.824ZM1.64238 5.824H2.64238V2.08H1.64238H0.642375V5.824H1.64238ZM1.64238 2.08V3.08H15.3224V2.08V1.08H1.64238V2.08ZM19.5348 18.568L19.1315 19.4831L19.1408 19.4872L19.1501 19.4911L19.5348 18.568ZM17.2788 16.888L16.4809 17.4908L16.4884 17.5008L16.4961 17.5105L17.2788 16.888ZM16.3668 14.464V13.464H15.2928L15.3693 14.5352L16.3668 14.464ZM20.9268 14.464L21.916 14.3175L21.7895 13.464H20.9268V14.464ZM23.4708 14.224L23.8695 13.3069L23.8695 13.3069L23.4708 14.224ZM21.6468 13.696L21.8676 12.7207L21.8553 12.7179L21.8429 12.7154L21.6468 13.696ZM19.2467 13.048L18.8956 13.9843L18.8956 13.9843L19.2467 13.048ZM17.5668 11.872L16.8059 12.5209L16.8114 12.5273L16.8169 12.5336L17.5668 11.872ZM17.5188 7.504L18.3477 8.06351L18.3539 8.05399L17.5188 7.504ZM19.4148 5.944L19.0022 5.03302L18.9957 5.03604L19.4148 5.944ZM26.6148 6.664L25.964 7.42326L25.964 7.42326L26.6148 6.664ZM28.3668 10.072V11.072H29.4868L29.3604 9.95909L28.3668 10.072ZM24.1188 10.072L23.1355 10.2541L23.2869 11.072H24.1188V10.072ZM23.5428 9.088L22.9026 9.85622L22.9255 9.87534L22.9496 9.89306L23.5428 9.088ZM21.4788 8.944L20.9095 8.12181L20.8939 8.13261L20.8787 8.144L21.4788 8.944ZM21.7428 10.288L21.3113 11.1901L21.3275 11.1979L21.344 11.2051L21.7428 10.288ZM23.5188 10.792L23.3079 11.7695L23.3103 11.77L23.5188 10.792ZM25.9428 11.488L25.5713 12.4165L25.5792 12.4196L25.9428 11.488ZM27.6468 12.736L26.8785 13.3762L26.8882 13.3878L26.8982 13.399L27.6468 12.736ZM27.6948 17.152L26.8923 16.5553L26.8873 16.562L26.8824 16.5688L27.6948 17.152ZM25.7508 18.64L26.1404 19.561L26.1488 19.5573L25.7508 18.64ZM22.7988 19.168V18.168C21.6927 18.168 20.7387 17.9863 19.9194 17.6449L19.5348 18.568L19.1501 19.4911C20.2508 19.9497 21.4728 20.168 22.7988 20.168V19.168ZM19.5348 18.568L19.938 17.6529C19.1204 17.2926 18.5065 16.8252 18.0614 16.2655L17.2788 16.888L16.4961 17.5105C17.171 18.3588 18.0611 19.0114 19.1315 19.4831L19.5348 18.568ZM17.2788 16.888L18.0766 16.2852C17.6485 15.7186 17.4144 15.0951 17.3642 14.3928L16.3668 14.464L15.3693 14.5352C15.4471 15.6249 15.821 16.6174 16.4809 17.4908L17.2788 16.888ZM16.3668 14.464V15.464H20.9268V14.464V13.464H16.3668V14.464ZM20.9268 14.464L19.9375 14.6105C20.0388 15.2938 20.3748 15.8781 20.9455 16.2857L21.5268 15.472L22.108 14.6583C22.0067 14.5859 21.9427 14.4982 21.916 14.3175L20.9268 14.464ZM21.5268 15.472L20.9455 16.2857C21.483 16.6696 22.1132 16.832 22.7747 16.832V15.832V14.832C22.4443 14.832 22.2425 14.7544 22.108 14.6583L21.5268 15.472ZM22.7747 15.832V16.832C23.2872 16.832 23.8192 16.7263 24.268 16.4057L23.6868 15.592L23.1055 14.7783C23.1052 14.7785 23.0874 14.7915 23.0363 14.8049C22.9833 14.8189 22.8991 14.832 22.7747 14.832V15.832ZM23.6868 15.592L24.268 16.4057C24.7316 16.0746 25.0228 15.5744 25.0228 14.968H24.0228H23.0228C23.0228 14.9447 23.0294 14.8956 23.0583 14.8419C23.0858 14.7908 23.1136 14.7725 23.1055 14.7783L23.6868 15.592ZM24.0228 14.968H25.0228C25.0228 14.6054 24.9191 14.2459 24.6878 13.9342C24.4648 13.6335 24.1672 13.4364 23.8695 13.3069L23.4708 14.224L23.072 15.1411C23.1423 15.1716 23.1207 15.1785 23.0817 15.1258C23.0619 15.0993 23.0452 15.0671 23.0345 15.033C23.024 14.9998 23.0228 14.9761 23.0228 14.968H24.0228ZM23.4708 14.224L23.8695 13.3069C23.4094 13.1069 22.723 12.9144 21.8676 12.7207L21.6468 13.696L21.4259 14.6713C22.2665 14.8616 22.7961 15.0211 23.072 15.1411L23.4708 14.224ZM21.6468 13.696L21.8429 12.7154C20.9151 12.5299 20.1711 12.3266 19.5979 12.1117L19.2467 13.048L18.8956 13.9843C19.6024 14.2494 20.4584 14.4781 21.4506 14.6766L21.6468 13.696ZM19.2467 13.048L19.5979 12.1117C19.1207 11.9327 18.6951 11.6393 18.3166 11.2104L17.5668 11.872L16.8169 12.5336C17.3984 13.1927 18.0928 13.6833 18.8956 13.9843L19.2467 13.048ZM17.5668 11.872L18.3276 11.2231C18.0591 10.9083 17.8708 10.4263 17.8708 9.664H16.8708H15.8708C15.8708 10.7577 16.1464 11.7477 16.8059 12.5209L17.5668 11.872ZM16.8708 9.664H17.8708C17.8708 9.05576 18.0313 8.53201 18.3476 8.06347L17.5188 7.504L16.6899 6.94453C16.1422 7.75599 15.8708 8.67224 15.8708 9.664H16.8708ZM17.5188 7.504L18.3539 8.05399C18.6672 7.57822 19.1425 7.17102 19.8338 6.85196L19.4148 5.944L18.9957 5.03604C18.023 5.48497 17.2343 6.11777 16.6836 6.95401L17.5188 7.504ZM19.4148 5.944L19.8273 6.85495C20.5155 6.5433 21.3837 6.368 22.4628 6.368V5.368V4.368C21.1738 4.368 20.01 4.5767 19.0022 5.03305L19.4148 5.944ZM22.4628 5.368V6.368C24.0627 6.368 25.1891 6.75912 25.964 7.42326L26.6148 6.664L27.2655 5.90474C26.0244 4.84088 24.3828 4.368 22.4628 4.368V5.368ZM26.6148 6.664L25.964 7.42326C26.7664 8.1111 27.2396 9.0094 27.3731 10.1849L28.3668 10.072L29.3604 9.95909C29.1739 8.3186 28.4791 6.9449 27.2655 5.90474L26.6148 6.664ZM28.3668 10.072V9.072H24.1188V10.072V11.072H28.3668V10.072ZM24.1188 10.072L25.102 9.88991C24.9839 9.25193 24.6775 8.68197 24.1359 8.28294L23.5428 9.088L22.9496 9.89306C23.016 9.94202 23.0936 10.0281 23.1355 10.2541L24.1188 10.072ZM23.5428 9.088L24.1829 8.31978C23.6642 7.88754 23.0204 7.728 22.3668 7.728V8.728V9.728C22.7051 9.728 22.8453 9.80846 22.9026 9.85622L23.5428 9.088ZM22.3668 8.728V7.728C21.8781 7.728 21.3509 7.81628 20.9095 8.12181L21.4788 8.944L22.048 9.76619C22.0328 9.77666 22.0406 9.76644 22.0931 9.75367C22.1467 9.74062 22.2348 9.728 22.3668 9.728V8.728ZM21.4788 8.944L20.8787 8.144C20.416 8.49105 20.1908 8.99767 20.1908 9.544H21.1908H22.1908C22.1908 9.54277 22.1904 9.58035 22.1643 9.63473C22.1371 9.69126 22.1005 9.72765 22.0788 9.744L21.4788 8.944ZM21.1908 9.544H20.1908C20.1908 10.3615 20.7103 10.9027 21.3113 11.1901L21.7428 10.288L22.1742 9.38587C22.0918 9.34643 22.1006 9.33209 22.1318 9.37415C22.1483 9.39632 22.165 9.42649 22.1766 9.46232C22.1881 9.49779 22.1908 9.52689 22.1908 9.544H21.1908ZM21.7428 10.288L21.344 11.2051C21.8077 11.4067 22.4809 11.5912 23.3079 11.7695L23.5188 10.792L23.7296 9.81448C22.9246 9.64084 22.4138 9.48932 22.1415 9.37093L21.7428 10.288ZM23.5188 10.792L23.3103 11.77C24.253 11.9709 25.0018 12.1887 25.5714 12.4165L25.9428 11.488L26.3141 10.5595C25.6037 10.2753 24.7365 10.0291 23.7272 9.81396L23.5188 10.792ZM25.9428 11.488L25.5792 12.4196C26.0677 12.6102 26.4994 12.9213 26.8785 13.3762L27.6468 12.736L28.415 12.0958C27.8341 11.3987 27.1298 10.8778 26.3063 10.5564L25.9428 11.488ZM27.6468 12.736L26.8982 13.399C27.188 13.7262 27.3907 14.2322 27.3907 15.04H28.3907H29.3907C29.3907 13.8958 29.0975 12.8658 28.3953 12.073L27.6468 12.736ZM28.3907 15.04H27.3907C27.3907 15.6109 27.2269 16.1053 26.8923 16.5553L27.6948 17.152L28.4972 17.7487C29.0906 16.9507 29.3907 16.0371 29.3907 15.04H28.3907ZM27.6948 17.152L26.8824 16.5688C26.5594 17.0187 26.0687 17.4119 25.3527 17.7227L25.7508 18.64L26.1488 19.5573C27.1288 19.1321 27.9341 18.5333 28.5071 17.7352L27.6948 17.152ZM25.7508 18.64L25.3611 17.719C24.6797 18.0073 23.8341 18.168 22.7988 18.168V19.168V20.168C24.0354 20.168 25.1578 19.9767 26.1404 19.561L25.7508 18.64ZM43.2074 6.976L42.4498 7.62871L42.4551 7.63494L42.4606 7.64109L43.2074 6.976ZM44.5754 19V20H45.5754V19H44.5754ZM39.8714 19H38.8714V20H39.8714V19ZM39.2714 9.976L38.5254 10.642L38.5315 10.6488L38.5376 10.6554L39.2714 9.976ZM36.0074 9.976L36.7411 10.6554L36.7473 10.6488L36.7533 10.642L36.0074 9.976ZM35.4074 19V20H36.4074V19H35.4074ZM30.7034 19H29.7034V20H30.7034V19ZM30.7034 1.24V0.24H29.7034V1.24H30.7034ZM35.4074 1.24H36.4074V0.24H35.4074V1.24ZM35.4074 7.456H34.4074V10.6884L36.2327 8.02068L35.4074 7.456ZM37.0874 5.992L37.5506 6.87825L37.558 6.87435L37.0874 5.992ZM39.5594 5.416V6.416C40.8431 6.416 41.7677 6.83698 42.4498 7.62871L43.2074 6.976L43.965 6.32329C42.8551 5.03501 41.3476 4.416 39.5594 4.416V5.416ZM43.2074 6.976L42.4606 7.64109C43.1675 8.43476 43.5754 9.5657 43.5754 11.152H44.5754H45.5754C45.5754 9.2183 45.0713 7.56524 43.9541 6.31091L43.2074 6.976ZM44.5754 11.152H43.5754V19H44.5754H45.5754V11.152H44.5754ZM44.5754 19V18H39.8714V19V20H44.5754V19ZM39.8714 19H40.8714V11.776H39.8714H38.8714V19H39.8714ZM39.8714 11.776H40.8714C40.8714 10.835 40.6233 9.96418 40.0051 9.29659L39.2714 9.976L38.5376 10.6554C38.7195 10.8518 38.8714 11.181 38.8714 11.776H39.8714ZM39.2714 9.976L40.0173 9.30998C39.4038 8.62289 38.5825 8.304 37.6634 8.304V9.304V10.304C38.0882 10.304 38.3389 10.4331 38.5254 10.642L39.2714 9.976ZM37.6634 9.304V8.304C36.7284 8.304 35.8843 8.61237 35.2614 9.30998L36.0074 9.976L36.7533 10.642C36.9304 10.4436 37.1904 10.304 37.6634 10.304V9.304ZM36.0074 9.976L35.2736 9.29659C34.6555 9.96418 34.4074 10.835 34.4074 11.776H35.4074H36.4074C36.4074 11.181 36.5593 10.8518 36.7411 10.6554L36.0074 9.976ZM35.4074 11.776H34.4074V19H35.4074H36.4074V11.776H35.4074ZM35.4074 19V18H30.7034V19V20H35.4074V19ZM30.7034 19H31.7034V1.24H30.7034H29.7034V19H30.7034ZM30.7034 1.24V2.24H35.4074V1.24V0.24H30.7034V1.24ZM35.4074 1.24H34.4074V7.456H35.4074H36.4074V1.24H35.4074ZM35.4074 7.456L36.2327 8.02068C36.549 7.55837 36.9802 7.17642 37.5506 6.87822L37.0874 5.992L36.6241 5.10577C35.7866 5.54358 35.0977 6.13763 34.5821 6.89132L35.4074 7.456ZM37.0874 5.992L37.558 6.87435C38.1143 6.57764 38.7727 6.416 39.5594 6.416V5.416V4.416C38.49 4.416 37.5005 4.63835 36.6168 5.10965L37.0874 5.992ZM51.8605 7.912H50.8605V11.1317L52.6845 8.47853L51.8605 7.912ZM56.2045 5.416H57.2045V4.416H56.2045V5.416ZM56.2045 10.432V11.432H57.2045V10.432H56.2045ZM52.6045 11.032L53.2323 11.8104L53.2323 11.8104L52.6045 11.032ZM51.8605 19V20H52.8605V19H51.8605ZM47.1565 19H46.1565V20H47.1565V19ZM47.1565 5.536V4.536H46.1565V5.536H47.1565ZM51.8605 5.536H52.8605V4.536H51.8605V5.536ZM51.8605 7.912L52.6845 8.47853C53.1362 7.82159 53.6722 7.31653 54.2923 6.9471L53.7805 6.088L53.2687 5.2289C52.3848 5.75547 51.6408 6.4664 51.0365 7.34547L51.8605 7.912ZM53.7805 6.088L54.2923 6.9471C54.8917 6.59004 55.5232 6.416 56.2045 6.416V5.416V4.416C55.1578 4.416 54.1733 4.68995 53.2687 5.2289L53.7805 6.088ZM56.2045 5.416H55.2045V10.432H56.2045H57.2045V5.416H56.2045ZM56.2045 10.432V9.432H54.8845V10.432V11.432H56.2045V10.432ZM54.8845 10.432V9.432C53.7614 9.432 52.7302 9.64594 51.9767 10.2536L52.6045 11.032L53.2323 11.8104C53.4708 11.6181 53.9596 11.432 54.8845 11.432V10.432ZM52.6045 11.032L51.9767 10.2536C51.1391 10.9291 50.8605 11.9953 50.8605 13.12H51.8605H52.8605C52.8605 12.2607 53.0779 11.9349 53.2323 11.8104L52.6045 11.032ZM51.8605 13.12H50.8605V19H51.8605H52.8605V13.12H51.8605ZM51.8605 19V18H47.1565V19V20H51.8605V19ZM47.1565 19H48.1565V5.536H47.1565H46.1565V19H47.1565ZM47.1565 5.536V6.536H51.8605V5.536V4.536H47.1565V5.536ZM51.8605 5.536H50.8605V7.912H51.8605H52.8605V5.536H51.8605ZM57.3389 15.232L56.7221 14.4448L56.3389 14.7451V15.232H57.3389ZM61.1549 12.088L60.4913 11.3399L60.4913 11.3399L61.1549 12.088ZM63.6509 9.376L64.4608 9.96253L64.4655 9.95593L63.6509 9.376ZM64.2989 5.488L63.5095 6.10194L63.5199 6.11524L63.5307 6.12818L64.2989 5.488ZM62.2109 5.656L63.0429 6.2107L63.0481 6.20292L63.0531 6.19505L62.2109 5.656ZM61.8509 7.36V8.36H62.8724L62.8506 7.33873L61.8509 7.36ZM57.2909 7.36L56.2914 7.32631L56.2566 8.36H57.2909V7.36ZM58.2269 3.832L59.0765 4.35938L59.0805 4.35286L58.2269 3.832ZM60.4829 1.768L60.9049 2.67467L60.9176 2.66855L60.4829 1.768ZM67.9709 2.56L68.6838 1.85876L68.6838 1.85876L67.9709 2.56ZM67.7309 11.032L66.9382 10.4223L66.934 10.4278L67.7309 11.032ZM63.5789 14.944L63.0097 14.1218L60.3776 15.944H63.5789V14.944ZM69.5789 14.944H70.5789V13.944H69.5789V14.944ZM69.5789 18.76V19.76H70.5789V18.76H69.5789ZM57.3389 18.76H56.3389V19.76H57.3389V18.76ZM57.3389 15.232L57.9556 16.0192C59.5167 14.796 60.8059 13.7343 61.8185 12.8361L61.1549 12.088L60.4913 11.3399C59.5199 12.2016 58.265 13.236 56.7221 14.4448L57.3389 15.232ZM61.1549 12.088L61.8185 12.8361C62.8567 11.9151 63.74 10.9579 64.4608 9.96251L63.6509 9.376L62.8409 8.78949C62.2177 9.65009 61.4371 10.5009 60.4913 11.3399L61.1549 12.088ZM63.6509 9.376L64.4655 9.95593C65.2149 8.90331 65.6589 7.80771 65.6589 6.688H64.6589H63.6589C63.6589 7.26429 63.4309 7.96069 62.8362 8.79607L63.6509 9.376ZM64.6589 6.688H65.6589C65.6589 6.02743 65.5037 5.3717 65.0671 4.84781L64.2989 5.488L63.5307 6.12818C63.5741 6.18029 63.6589 6.32457 63.6589 6.688H64.6589ZM64.2989 5.488L65.0882 4.87406C64.6316 4.28693 63.9695 4.056 63.2909 4.056V5.056V6.056C63.4092 6.056 63.4661 6.07508 63.485 6.08314C63.4978 6.08863 63.5016 6.09176 63.5095 6.10194L64.2989 5.488ZM63.2909 5.056V4.056C62.4763 4.056 61.8032 4.43793 61.3686 5.11694L62.2109 5.656L63.0531 6.19505C63.1056 6.11304 63.1441 6.08815 63.1585 6.08016C63.1719 6.07271 63.2069 6.056 63.2909 6.056V5.056ZM62.2109 5.656L61.3788 5.1013C60.958 5.73248 60.8332 6.54211 60.8511 7.38127L61.8509 7.36L62.8506 7.33873C62.8365 6.67389 62.9517 6.34752 63.0429 6.2107L62.2109 5.656ZM61.8509 7.36V6.36H57.2909V7.36V8.36H61.8509V7.36ZM57.2909 7.36L58.2903 7.39369C58.3342 6.09268 58.6167 5.10013 59.0765 4.35936L58.2269 3.832L57.3772 3.30464C56.685 4.41987 56.3436 5.77932 56.2914 7.32631L57.2909 7.36ZM58.2269 3.832L59.0805 4.35286C59.5625 3.56302 60.1701 3.01664 60.9049 2.67458L60.4829 1.768L60.0608 0.861417C58.9396 1.38336 58.0433 2.21297 57.3732 3.31113L58.2269 3.832ZM60.4829 1.768L60.9176 2.66855C61.6967 2.29247 62.5778 2.096 63.5789 2.096V1.096V0.0959988C62.3079 0.0959988 61.1251 0.34753 60.0481 0.867447L60.4829 1.768ZM63.5789 1.096V2.096C65.397 2.096 66.5552 2.54674 67.2579 3.26124L67.9709 2.56L68.6838 1.85876C67.4666 0.621256 65.6968 0.0959988 63.5789 0.0959988V1.096ZM67.9709 2.56L67.2579 3.26124C68.0089 4.02469 68.4109 5.02426 68.4109 6.352H69.4109H70.4109C70.4109 4.57574 69.8529 3.04731 68.6838 1.85876L67.9709 2.56ZM69.4109 6.352H68.4109C68.4109 7.77238 67.9386 9.12188 66.9383 10.4223L67.7309 11.032L68.5235 11.6417C69.7632 10.0301 70.4109 8.25962 70.4109 6.352H69.4109ZM67.7309 11.032L66.934 10.4278C65.9004 11.791 64.596 13.0236 63.0097 14.1218L63.5789 14.944L64.1481 15.7662C65.8897 14.5604 67.3534 13.185 68.5277 11.6362L67.7309 11.032ZM63.5789 14.944V15.944H69.5789V14.944V13.944H63.5789V14.944ZM69.5789 14.944H68.5789V18.76H69.5789H70.5789V14.944H69.5789ZM69.5789 18.76V17.76H57.3389V18.76V19.76H69.5789V18.76ZM57.3389 18.76H58.3389V15.232H57.3389H56.3389V18.76H57.3389ZM76.0189 13.696L77.0037 13.5222L76.8579 12.696H76.0189V13.696ZM79.2589 14.32L78.3289 13.9523L78.3244 13.964L79.2589 14.32ZM79.6669 11.032H80.6669V7.82061L78.8437 10.4643L79.6669 11.032ZM78.3229 12.136L78.7499 13.0402L78.7499 13.0402L78.3229 12.136ZM72.6349 11.104L71.9278 11.8111L71.9278 11.8111L72.6349 11.104ZM71.9389 3.856L72.8101 4.34703L72.8138 4.34031L71.9389 3.856ZM74.0509 1.792L73.5915 0.90376L73.5852 0.907081L74.0509 1.792ZM82.4029 3.304L81.5626 3.84617L81.5695 3.85661L82.4029 3.304ZM82.4509 16.792L81.5965 16.2723L81.5927 16.2788L82.4509 16.792ZM74.4589 18.376L73.956 19.2403L73.9653 19.2457L73.9746 19.2509L74.4589 18.376ZM72.4189 16.384L71.5456 16.8711L71.5512 16.8811L71.557 16.891L72.4189 16.384ZM71.6269 13.696V12.696H70.5581L70.6292 13.7625L71.6269 13.696ZM78.8269 8.416L79.534 9.12311L79.5427 9.11448L79.5511 9.10565L78.8269 8.416ZM78.8029 5.632L78.0958 6.33911L78.1045 6.34773L78.1133 6.35614L78.8029 5.632ZM76.0909 5.656L75.3838 4.94889L75.3838 4.94889L76.0909 5.656ZM76.0909 8.392L75.3668 9.08165L75.3752 9.09048L75.3838 9.09911L76.0909 8.392ZM76.0189 13.696L75.0342 13.8698C75.1543 14.5504 75.4217 15.189 75.9303 15.6563C76.4515 16.1353 77.1097 16.328 77.7949 16.328V15.328V14.328C77.4882 14.328 77.3543 14.2487 77.2836 14.1837C77.2001 14.107 77.0756 13.9296 77.0037 13.5222L76.0189 13.696ZM77.7949 15.328V16.328C78.3133 16.328 78.8242 16.2053 79.268 15.8996C79.712 15.594 80.0089 15.1604 80.1934 14.676L79.2589 14.32L78.3244 13.964C78.253 14.1516 78.1779 14.222 78.1338 14.2524C78.0897 14.2827 77.9966 14.328 77.7949 14.328V15.328ZM79.2589 14.32L80.1889 14.6877C80.534 13.8148 80.6669 12.559 80.6669 11.032H79.6669H78.6669C78.6669 12.513 78.5279 13.4492 78.329 13.9523L79.2589 14.32ZM79.6669 11.032L78.8437 10.4643C78.6363 10.765 78.3337 11.025 77.8959 11.2318L78.3229 12.136L78.7499 13.0402C79.4642 12.703 80.0576 12.227 80.4902 11.5997L79.6669 11.032ZM78.3229 12.136L77.8959 11.2318C77.4699 11.4329 76.9706 11.544 76.3789 11.544V12.544V13.544C77.2273 13.544 78.024 13.3831 78.7499 13.0402L78.3229 12.136ZM76.3789 12.544V11.544C75.0702 11.544 74.0893 11.1441 73.342 10.3969L72.6349 11.104L71.9278 11.8111C73.1006 12.9839 74.6157 13.544 76.3789 13.544V12.544ZM72.6349 11.104L73.342 10.3969C72.6253 9.68019 72.1949 8.58571 72.1949 6.952H71.1949H70.1949C70.1949 8.93429 70.7245 10.6078 71.9278 11.8111L72.6349 11.104ZM71.1949 6.952H72.1949C72.1949 5.91024 72.4121 5.05318 72.8101 4.34701L71.9389 3.856L71.0678 3.36499C70.4738 4.41882 70.1949 5.62576 70.1949 6.952H71.1949ZM71.9389 3.856L72.8138 4.34031C73.2148 3.61602 73.776 3.06673 74.5167 2.67692L74.0509 1.792L73.5852 0.907081C72.5018 1.47727 71.6551 2.30398 71.064 3.37168L71.9389 3.856ZM74.0509 1.792L74.5104 2.68022C75.273 2.28576 76.1902 2.072 77.2909 2.072V1.072V0.0719991C75.9276 0.0719991 74.6849 0.33824 73.5915 0.903782L74.0509 1.792ZM77.2909 1.072V2.072C79.5422 2.072 80.8528 2.74583 81.5626 3.84613L82.4029 3.304L83.2432 2.76187C82.0331 0.886166 79.9357 0.0719991 77.2909 0.0719991V1.072ZM82.4029 3.304L81.5695 3.85661C82.3899 5.09397 82.8669 7.00965 82.8669 9.736H83.8669H84.8669C84.8669 6.83034 84.368 4.45803 83.2364 2.75139L82.4029 3.304ZM83.8669 9.736H82.8669C82.8669 12.8227 82.3985 14.9539 81.5966 16.2723L82.4509 16.792L83.3053 17.3117C84.3914 15.5261 84.8669 12.9533 84.8669 9.736H83.8669ZM82.4509 16.792L81.5927 16.2788C80.8929 17.449 79.6753 18.12 77.6509 18.12V19.12V20.12C80.1705 20.12 82.1529 19.239 83.3092 17.3052L82.4509 16.792ZM77.6509 19.12V18.12C76.5541 18.12 75.6637 17.8999 74.9433 17.5011L74.4589 18.376L73.9746 19.2509C75.0462 19.8441 76.2838 20.12 77.6509 20.12V19.12ZM74.4589 18.376L74.9618 17.5117C74.2187 17.0793 73.6673 16.5339 73.2809 15.877L72.4189 16.384L71.557 16.891C72.1306 17.8661 72.9392 18.6487 73.956 19.2403L74.4589 18.376ZM72.4189 16.384L73.2923 15.8969C72.9011 15.1955 72.679 14.4433 72.6247 13.6295L71.6269 13.696L70.6292 13.7625C70.7029 14.8687 71.0088 15.9085 71.5456 16.8711L72.4189 16.384ZM71.6269 13.696V14.696H76.0189V13.696V12.696H71.6269V13.696ZM77.5069 8.896V9.896C78.2654 9.896 78.9841 9.67308 79.534 9.12311L78.8269 8.416L78.1198 7.70889C78.0298 7.79892 77.8685 7.896 77.5069 7.896V8.896ZM78.8269 8.416L79.5511 9.10565C80.0835 8.54657 80.3069 7.83244 80.3069 7.072H79.3069H78.3069C78.3069 7.43156 78.2103 7.61343 78.1028 7.72634L78.8269 8.416ZM79.3069 7.072H80.3069C80.3069 6.26508 80.0927 5.47937 79.4926 4.90786L78.8029 5.632L78.1133 6.35614C78.1852 6.42463 78.3069 6.59892 78.3069 7.072H79.3069ZM78.8029 5.632L79.51 4.92489C78.9549 4.36972 78.2242 4.152 77.4589 4.152V5.152V6.152C77.8457 6.152 78.011 6.25428 78.0958 6.33911L78.8029 5.632ZM77.4589 5.152V4.152C76.6778 4.152 75.9459 4.38679 75.3838 4.94889L76.0909 5.656L76.798 6.36311C76.9079 6.25321 77.0881 6.152 77.4589 6.152V5.152ZM76.0909 5.656L75.3838 4.94889C74.819 5.51375 74.6109 6.26865 74.6109 7.048H75.6109H76.6109C76.6109 6.61135 76.7229 6.43825 76.798 6.3631L76.0909 5.656ZM75.6109 7.048H74.6109C74.6109 7.80844 74.8343 8.52257 75.3668 9.08165L76.0909 8.392L76.8151 7.70234C76.7075 7.58943 76.6109 7.40756 76.6109 7.048H75.6109ZM76.0909 8.392L75.3838 9.09911C75.956 9.67124 76.7114 9.896 77.5069 9.896V8.896V7.896C77.0865 7.896 76.8979 7.78476 76.798 7.68489L76.0909 8.392Z" fill="#8D8D8D" mask="url(#path-1-outside-1_1_2)"/>
</svg>
