<svg width="848" height="516" viewBox="0 0 848 516" fill="none" xmlns="http://www.w3.org/2000/svg">
<rect width="848" height="516" fill="#090808"/>
<rect x="343" y="280" width="98" height="48" rx="22" fill="#788F80"/>
<path d="M376.339 300.453C376.273 299.833 375.994 299.35 375.501 299.004C375.014 298.659 374.379 298.486 373.598 298.486C373.049 298.486 372.578 298.569 372.185 298.734C371.792 298.9 371.491 299.125 371.283 299.409C371.074 299.693 370.968 300.018 370.963 300.382C370.963 300.685 371.032 300.948 371.169 301.17C371.311 301.393 371.503 301.582 371.744 301.739C371.986 301.89 372.253 302.018 372.547 302.122C372.84 302.226 373.136 302.314 373.435 302.385L374.798 302.726C375.348 302.854 375.875 303.027 376.382 303.244C376.893 303.462 377.35 303.737 377.753 304.068C378.16 304.4 378.482 304.8 378.719 305.268C378.955 305.737 379.074 306.286 379.074 306.916C379.074 307.768 378.856 308.519 378.42 309.168C377.985 309.812 377.355 310.316 376.531 310.68C375.712 311.04 374.72 311.22 373.555 311.22C372.424 311.22 371.441 311.045 370.608 310.695C369.779 310.344 369.131 309.833 368.662 309.161C368.198 308.488 367.947 307.669 367.909 306.703H370.501C370.539 307.21 370.696 307.631 370.97 307.967C371.245 308.304 371.602 308.554 372.043 308.72C372.488 308.886 372.985 308.969 373.534 308.969C374.107 308.969 374.609 308.884 375.04 308.713C375.475 308.538 375.816 308.296 376.062 307.989C376.309 307.676 376.434 307.312 376.439 306.895C376.434 306.516 376.323 306.204 376.105 305.957C375.887 305.706 375.582 305.498 375.189 305.332C374.801 305.162 374.346 305.01 373.825 304.878L372.17 304.452C370.973 304.144 370.026 303.678 369.33 303.053C368.638 302.423 368.293 301.587 368.293 300.545C368.293 299.688 368.525 298.938 368.989 298.294C369.457 297.65 370.094 297.151 370.899 296.795C371.704 296.436 372.616 296.256 373.634 296.256C374.666 296.256 375.57 296.436 376.347 296.795C377.128 297.151 377.741 297.645 378.186 298.28C378.631 298.91 378.861 299.634 378.875 300.453H376.339ZM386.139 311.213C385.045 311.213 384.1 310.986 383.305 310.531C382.514 310.072 381.906 309.423 381.48 308.585C381.054 307.742 380.841 306.75 380.841 305.609C380.841 304.487 381.054 303.502 381.48 302.655C381.911 301.803 382.512 301.14 383.284 300.666C384.056 300.188 384.962 299.949 386.004 299.949C386.676 299.949 387.311 300.058 387.907 300.276C388.509 300.489 389.039 300.82 389.498 301.27C389.962 301.72 390.327 302.293 390.592 302.989C390.857 303.68 390.99 304.504 390.99 305.46V306.249H382.048V304.516H388.525C388.52 304.023 388.414 303.585 388.206 303.202C387.997 302.813 387.706 302.508 387.332 302.286C386.963 302.063 386.532 301.952 386.039 301.952C385.514 301.952 385.052 302.08 384.654 302.335C384.257 302.586 383.947 302.918 383.724 303.33C383.506 303.737 383.395 304.184 383.39 304.672V306.185C383.39 306.819 383.506 307.364 383.738 307.818C383.97 308.268 384.295 308.614 384.711 308.855C385.128 309.092 385.616 309.21 386.174 309.21C386.548 309.21 386.887 309.158 387.19 309.054C387.493 308.945 387.756 308.786 387.978 308.578C388.201 308.37 388.369 308.112 388.483 307.804L390.883 308.074C390.732 308.708 390.443 309.262 390.017 309.736C389.595 310.205 389.056 310.569 388.397 310.83C387.739 311.085 386.986 311.213 386.139 311.213ZM395.736 304.608V311H393.165V300.091H395.622V301.945H395.75C396.001 301.334 396.401 300.848 396.95 300.489C397.504 300.129 398.188 299.949 399.003 299.949C399.756 299.949 400.411 300.11 400.97 300.432C401.534 300.754 401.969 301.22 402.277 301.831C402.589 302.442 402.743 303.183 402.739 304.054V311H400.168V304.452C400.168 303.723 399.978 303.152 399.599 302.74C399.225 302.328 398.707 302.122 398.044 302.122C397.594 302.122 397.194 302.222 396.844 302.42C396.498 302.615 396.226 302.896 396.027 303.266C395.833 303.635 395.736 304.082 395.736 304.608ZM409.401 311.192C408.544 311.192 407.777 310.972 407.099 310.531C406.422 310.091 405.887 309.452 405.494 308.614C405.101 307.776 404.905 306.758 404.905 305.56C404.905 304.348 405.104 303.325 405.501 302.491C405.904 301.653 406.446 301.021 407.128 300.595C407.81 300.164 408.57 299.949 409.408 299.949C410.047 299.949 410.572 300.058 410.984 300.276C411.396 300.489 411.723 300.747 411.964 301.05C412.206 301.348 412.393 301.63 412.526 301.895H412.632V296.455H415.21V311H412.682V309.281H412.526C412.393 309.546 412.201 309.828 411.95 310.126C411.699 310.42 411.368 310.671 410.956 310.879C410.544 311.088 410.026 311.192 409.401 311.192ZM410.118 309.082C410.662 309.082 411.126 308.936 411.51 308.642C411.893 308.344 412.185 307.929 412.384 307.399C412.582 306.869 412.682 306.251 412.682 305.545C412.682 304.84 412.582 304.227 412.384 303.706C412.189 303.185 411.901 302.78 411.517 302.491C411.138 302.203 410.672 302.058 410.118 302.058C409.545 302.058 409.067 302.207 408.683 302.506C408.3 302.804 408.011 303.216 407.817 303.741C407.623 304.267 407.526 304.868 407.526 305.545C407.526 306.227 407.623 306.836 407.817 307.371C408.016 307.901 408.307 308.32 408.69 308.628C409.079 308.931 409.554 309.082 410.118 309.082Z" fill="black"/>
</svg>
